<svg xmlns="http://www.w3.org/2000/svg" viewBox="0 0 589 593" width="65" height="65"><path d="M545 541.7H46.5V46.4H545v495.3zM70.1 518.1h451.2V70H70.1v448.1z"/><path d="M181.4 209.2h22.7v145.9h76.7v21.2h-99.4V209.2zM303.9 209.2H362c7.2 0 14 .9 20.2 2.6 6.2 1.7 11.6 4.3 16.1 7.7 4.5 3.4 8 7.7 10.6 13 2.6 5.3 3.9 11.4 3.9 18.5 0 9.6-2.7 17.4-8 23.5-5.3 6.1-12.3 10.5-20.8 13.3v.5c5 .3 9.8 1.6 14.2 3.9 4.4 2.3 8.2 5.3 11.4 9 3.2 3.7 5.8 8 7.7 12.9 1.9 4.9 2.8 10.1 2.8 15.8 0 7.6-1.5 14.2-4.6 19.9-3.1 5.7-7.3 10.6-12.6 14.5-5.4 3.9-11.6 6.9-18.7 9-7.1 2.1-14.7 3.1-22.9 3.1h-57.4V209.2zm22.6 69.4h30.9c4.3 0 8.3-.4 12-1.3 3.8-.9 7.1-2.3 9.9-4.4 2.8-2.1 5.1-4.6 6.7-7.8 1.6-3.1 2.5-7 2.5-11.6 0-6.6-2.1-12.4-6.4-17.2-4.3-4.9-10.9-7.3-20.1-7.3h-35.6v49.6zm0 77.9h33.3c3.5 0 7.3-.4 11.4-1.1 4.2-.7 8.1-2.1 11.7-4.3 3.6-2.1 6.7-5 9.2-8.6s3.8-8.4 3.8-14.4c0-9.9-3.2-17.3-9.7-22.3-6.5-5-15.2-7.4-26.2-7.4h-33.5v58.1z"/></svg>